<?xml version="1.0" standalone="no"?>
<!DOCTYPE svg PUBLIC "-//W3C//DTD SVG 20010904//EN"
 "http://www.w3.org/TR/2001/REC-SVG-20010904/DTD/svg10.dtd">
<svg version="1.0" xmlns="http://www.w3.org/2000/svg"
 width="270.000000pt" height="270.000000pt" viewBox="0 0 270.000000 270.000000"
 preserveAspectRatio="xMidYMid meet">
<metadata>
Created by potrace 1.11, written by Peter Selinger 2001-2013
</metadata>
<g transform="translate(0.000000,270.000000) scale(0.100000,-0.100000)"
fill="#000000" stroke="none">
<path d="M327 2264 c-37 -13 -118 -35 -180 -50 -61 -15 -113 -28 -114 -29 -1
0 2 -18 8 -38 7 -26 16 -37 28 -37 12 0 21 -10 25 -26 6 -23 10 -25 44 -20 21
2 43 1 51 -3 17 -11 27 -95 25 -226 -14 -1107 -16 -1176 -40 -1233 -13 -33
-67 -65 -102 -61 -37 3 -42 -1 -42 -41 0 -36 3 -40 25 -40 19 0 25 -5 25 -23
l0 -23 268 1 c147 1 273 2 280 3 15 2 6 22 -9 22 -6 0 -7 -5 -3 -12 4 -7 3 -8
-5 -4 -9 6 -9 11 -1 21 7 8 9 19 5 25 -3 5 -1 10 4 10 6 0 11 -8 11 -17 0 -10
8 -27 17 -38 12 -16 14 -16 10 -3 -3 10 -2 20 4 23 5 4 7 10 4 15 -3 5 2 16
11 24 10 11 11 16 3 16 -6 0 -18 -8 -26 -18 -13 -15 -13 -15 -3 6 11 23 18 26
44 16 13 -5 12 -9 -7 -25 -12 -10 -18 -18 -13 -19 5 0 3 -7 -4 -15 -14 -17 0
-21 17 -4 7 7 12 6 16 -5 4 -10 1 -13 -7 -10 -8 3 -16 1 -19 -3 -3 -5 19 -9
49 -9 40 1 56 5 59 17 3 8 16 30 29 47 l23 32 21 -23 c12 -13 22 -27 22 -32 0
-4 -9 2 -20 15 -11 13 -23 20 -28 16 -4 -4 2 -14 12 -22 11 -8 15 -14 9 -14
-7 0 -15 5 -18 10 -9 15 -22 12 -29 -7 -3 -10 -9 -24 -12 -30 -3 -7 -1 -13 4
-13 5 0 13 10 19 22 6 15 12 18 17 10 4 -7 2 -12 -3 -12 -6 0 -11 -4 -11 -8 0
-9 42 -8 58 2 7 4 12 2 12 -6 0 -9 3 -9 10 2 7 12 13 13 28 4 23 -15 405 -18
397 -3 -4 5 -1 9 4 9 6 0 11 -4 11 -9 0 -6 131 -9 325 -8 179 1 327 -1 329 -6
3 -4 3 -2 2 5 -2 7 -10 12 -19 12 -9 -1 -13 4 -10 12 3 8 0 14 -6 14 -6 0 -11
-4 -11 -9 0 -5 -8 -12 -17 -15 -14 -6 -14 -3 3 15 15 17 15 21 3 17 -9 -4 -16
-1 -16 7 0 10 5 11 18 4 30 -15 35 -9 10 11 -12 11 -27 18 -31 15 -5 -3 -11
-2 -14 3 -11 18 30 8 52 -12 24 -21 24 -21 38 -1 14 19 15 19 10 -8 -2 -15 0
-27 5 -27 5 0 9 -5 9 -12 0 -6 -9 -3 -20 7 -29 26 -32 15 -5 -17 l24 -28 7 23
c12 35 13 47 3 47 -5 0 -9 5 -9 11 0 5 5 7 10 4 6 -3 10 0 10 8 0 8 9 22 20
32 16 15 22 16 35 5 13 -11 13 -15 3 -21 -7 -5 -21 -6 -30 -3 -11 3 -18 0 -19
-8 0 -7 -2 -21 -4 -31 -2 -11 1 -16 8 -14 7 2 11 13 10 23 -1 10 0 13 3 6 5
-10 9 -10 20 -1 8 7 17 10 19 7 3 -3 -10 -16 -30 -29 -44 -30 -52 -49 -21 -49
16 0 23 5 22 16 0 9 5 19 11 21 7 3 13 0 13 -7 0 -6 -4 -8 -10 -5 -12 8 -13
-5 -1 -24 7 -11 11 -8 17 10 4 13 7 26 7 29 -1 3 7 6 17 6 18 0 18 -1 -1 -19
-11 -11 -18 -21 -16 -23 10 -10 197 -10 197 0 0 6 5 5 12 -2 14 -14 32 -16 24
-4 -3 5 1 9 9 9 8 0 15 -3 15 -6 0 -3 18 -6 39 -6 23 -1 37 3 34 9 -4 5 -1 6
8 1 19 -12 49 -14 55 -3 3 5 12 4 20 -3 8 -6 14 -8 14 -3 0 5 30 9 66 9 l67 0
1 37 c1 33 -2 38 -24 40 -16 2 -25 9 -25 20 0 23 -8 29 -45 33 -18 3 -35 7
-39 11 -3 3 -7 173 -8 377 -1 205 -3 379 -5 387 -3 8 -8 31 -12 50 -15 63 -47
114 -113 177 -55 53 -75 66 -135 84 -131 40 -267 15 -421 -76 -32 -19 -61 -35
-64 -35 -3 0 -2 23 1 50 3 28 4 50 2 50 -3 0 -16 -4 -30 -10 -25 -9 -26 -9
-22 25 3 19 3 35 1 35 -2 0 -37 -13 -77 -30 -41 -16 -117 -41 -169 -55 -52
-15 -99 -28 -105 -30 -8 -2 -9 -15 -5 -37 5 -23 13 -34 28 -36 14 -2 23 -12
25 -25 2 -18 10 -22 40 -22 20 0 40 -3 44 -8 11 -10 12 -367 1 -374 -5 -3 -3
-9 4 -14 11 -7 11 -9 1 -9 -9 0 -10 -5 -3 -17 6 -12 5 -21 -7 -31 -10 -7 -12
-11 -5 -8 6 4 14 2 18 -4 3 -5 1 -10 -6 -10 -8 0 -8 -4 -1 -12 5 -7 6 -22 2
-33 -4 -11 -5 -26 -2 -34 4 -10 1 -12 -9 -5 -21 13 -47 15 -54 4 -4 -6 1 -7
12 -3 15 5 16 3 6 -7 -15 -16 -43 -22 -43 -9 0 5 -5 9 -11 9 -8 0 -8 -4 1 -15
10 -12 7 -14 -19 -10 -17 2 -34 -1 -37 -7 -4 -7 -2 -8 4 -4 7 4 12 3 12 -2 0
-15 -37 -21 -50 -8 -8 8 -10 7 -5 -6 4 -11 -2 -22 -19 -33 -16 -11 -23 -22
-19 -32 4 -11 2 -14 -5 -9 -7 4 -12 5 -12 2 0 -11 44 -56 53 -56 6 0 3 8 -6
18 -10 10 -17 23 -17 28 0 5 5 1 11 -9 10 -18 12 -18 30 -1 18 16 20 16 38 0
18 -17 20 -17 30 1 6 10 11 14 11 9 0 -5 -7 -17 -15 -26 -14 -15 -14 -19 1
-31 14 -12 20 -9 44 18 16 17 31 29 34 26 3 -4 6 1 6 10 0 9 -10 23 -21 31
l-22 15 29 25 c16 14 34 25 39 26 6 0 -3 -11 -20 -25 l-30 -25 25 -22 c14 -13
24 -22 22 -22 -2 1 -22 -16 -44 -37 -50 -46 -73 -55 -95 -38 -13 11 -18 10
-34 -10 -10 -13 -16 -27 -13 -32 3 -5 0 -9 -5 -9 -18 0 -12 24 15 54 23 26 27
28 36 13 5 -9 17 -17 26 -17 11 0 13 3 5 8 -6 4 -13 14 -15 22 -3 16 -23 40
-33 40 -4 0 -5 -7 -2 -14 4 -11 1 -13 -10 -9 -9 4 -14 2 -10 -3 3 -6 2 -15 -2
-22 -5 -8 -18 -1 -44 23 l-37 35 35 35 c23 22 30 35 21 35 -18 0 -53 -36 -62
-63 -4 -14 1 -26 17 -39 20 -15 21 -17 4 -11 -18 6 -18 5 -6 -10 7 -9 16 -15
20 -13 16 10 33 -12 24 -29 -7 -12 -13 -14 -17 -6 -4 6 -2 11 5 11 18 0 1 13
-21 17 -21 3 -28 -12 -10 -20 6 -3 5 -4 -2 -3 -7 2 -12 13 -11 25 3 21 -12 30
-19 10 -2 -5 -12 -12 -23 -14 -11 -2 -22 -4 -25 -4 -3 -1 2 -6 10 -11 9 -6 10
-10 3 -10 -13 0 -28 19 -20 26 3 3 11 6 19 8 22 3 39 17 33 27 -9 14 -27 11
-19 -3 4 -7 3 -10 -1 -5 -5 4 -19 0 -32 -8 -13 -9 -23 -13 -23 -10 0 10 30 37
30 28 0 -4 5 -1 10 7 8 12 13 13 30 2 26 -16 35 -15 20 3 -7 9 -9 23 -4 37 4
13 7 27 6 31 -1 5 3 5 9 1 8 -4 9 -3 5 4 -8 13 -56 -5 -56 -20 0 -5 -4 -7 -10
-3 -5 3 -6 13 -3 22 5 12 0 10 -15 -5 -24 -24 -30 -41 -8 -23 11 9 15 8 20 -5
7 -19 -1 -34 -17 -33 -9 0 -9 2 1 6 6 2 12 9 12 15 0 6 -6 8 -14 5 -7 -3 -19
0 -25 6 -6 6 -11 7 -11 1 0 -5 5 -15 12 -22 7 -7 9 -12 4 -12 -9 0 -36 26 -33
31 1 3 -2 0 -8 -6 -16 -16 -69 -20 -60 -4 5 8 4 10 -4 5 -6 -4 -8 -12 -5 -18
5 -8 1 -9 -10 -5 -11 5 -15 3 -10 -4 4 -7 1 -10 -7 -7 -8 3 -16 15 -17 28 -3
18 -6 20 -13 9 -7 -11 -9 -10 -9 5 0 11 -3 17 -6 14 -3 -3 -22 11 -42 31 -85
87 -267 284 -271 294 -2 6 12 25 31 41 20 17 86 75 147 128 168 147 272 213
354 224 41 6 42 7 43 45 1 34 -2 38 -25 41 -18 2 -26 9 -26 23 0 19 -7 20
-237 20 l-238 1 0 -38 c0 -34 3 -38 25 -38 20 0 25 -5 25 -25 0 -18 5 -25 20
-25 11 0 20 -4 20 -9 0 -12 -182 -194 -279 -280 l-68 -60 3 82 c1 45 5 278 9
516 3 239 7 437 7 440 0 4 0 18 -1 34 -1 24 -4 27 -26 21 -23 -6 -25 -3 -25
25 0 36 4 36 -83 5z m1890 -836 c50 -24 56 -70 58 -390 0 -241 -2 -288 -13
-288 -12 0 -12 3 -1 18 11 14 11 15 -1 5 -22 -20 -33 -15 -16 8 8 12 12 28 9
37 -4 8 -2 13 3 10 5 -4 9 30 9 79 1 47 -1 81 -3 74 -2 -6 -8 -8 -13 -5 -6 3
-5 12 3 21 13 16 19 65 7 58 -3 -3 -6 6 -6 20 0 14 3 22 8 19 5 -3 9 0 9 6 0
6 -11 8 -27 4 -16 -3 -33 -6 -40 -6 -7 -1 -10 -5 -7 -9 2 -5 11 -6 19 -3 11 5
12 1 3 -18 -14 -30 -43 -34 -45 -6 -2 17 0 18 15 6 15 -12 16 -11 3 4 -7 10
-18 15 -25 11 -6 -4 -18 -8 -26 -8 -8 0 -15 -5 -15 -12 0 -6 -3 -15 -7 -19 -5
-4 -8 -3 -8 3 0 5 -7 10 -15 10 -8 0 -12 -5 -8 -10 3 -5 -3 -6 -15 -3 -11 4
-23 2 -26 -3 -4 -6 -14 -8 -24 -5 -10 4 -13 2 -7 -3 10 -8 18 -33 11 -33 -17
0 -35 14 -29 23 3 6 1 7 -6 3 -6 -4 -9 -12 -6 -17 9 -13 -9 -11 -23 3 -8 8
-12 8 -12 1 0 -6 7 -14 16 -17 9 -4 14 -13 10 -21 -3 -8 -1 -15 4 -15 10 0 52
-42 46 -47 -7 -7 -36 10 -30 18 3 5 -3 6 -12 2 -11 -4 -15 -3 -10 5 3 6 -2 15
-11 21 -11 6 -13 11 -5 11 7 0 10 5 6 11 -11 18 -24 -12 -14 -32 9 -17 4 -29
-12 -29 -5 0 -7 4 -3 9 3 5 -2 17 -11 25 -8 9 -11 16 -6 16 15 0 22 29 9 36
-7 4 -9 4 -5 -1 9 -9 -9 -35 -24 -35 -6 0 -6 6 1 14 10 12 9 14 -4 12 -9 -1
-20 -8 -24 -15 -4 -6 -16 -9 -27 -5 -16 5 -16 4 -4 -5 8 -6 12 -11 8 -11 -3 0
-14 -3 -24 -7 -10 -4 -15 -2 -11 4 3 5 0 10 -8 10 -8 0 -15 -3 -16 -6 0 -3 -2
-17 -5 -31 -3 -18 -2 -21 5 -10 5 8 7 18 5 22 -6 10 10 11 19 1 4 -3 -1 -15
-10 -25 -14 -15 -14 -21 -4 -27 10 -7 10 -9 -2 -14 -23 -9 -26 26 -21 243 4
187 6 196 27 213 38 30 164 89 219 103 60 15 156 11 195 -8z m23 -363 c-7 -9
-8 -15 -2 -15 19 0 23 -33 5 -52 -14 -16 -15 -21 -3 -28 19 -12 22 -108 3
-137 -10 -18 -11 -23 -1 -23 9 0 8 -3 -2 -10 -8 -5 -11 -10 -5 -10 5 0 4 -5
-3 -12 -9 -9 -15 -9 -24 0 -9 9 -7 13 5 18 9 3 14 10 11 16 -3 5 2 18 12 29
17 19 17 20 -2 13 -16 -7 -17 -6 -6 8 17 21 -3 35 -23 18 -9 -7 -15 -8 -15 -2
0 17 27 33 46 26 11 -3 15 -2 9 3 -5 4 -11 17 -13 28 -2 17 -1 18 8 5 8 -10
10 -11 8 -2 -4 17 -24 11 -22 -6 1 -7 -3 -11 -10 -9 -6 3 -9 11 -7 18 9 37 7
60 -6 76 -8 10 -11 12 -7 4 5 -10 3 -12 -7 -7 -8 4 -5 0 5 -8 13 -10 15 -16 7
-16 -11 0 -11 -3 0 -17 12 -14 12 -16 -1 -11 -8 2 -15 11 -15 19 0 8 -5 17
-12 22 -16 10 -43 -2 -37 -17 3 -7 -2 -19 -11 -26 -18 -15 -21 0 -3 18 9 9 9
12 1 12 -7 0 -14 -8 -17 -18 -3 -10 -15 -18 -26 -18 -11 0 -18 5 -16 11 2 5 9
9 15 7 6 -1 11 1 12 5 0 5 2 18 3 30 2 14 -2 19 -11 16 -7 -3 -14 -9 -14 -14
-1 -5 -2 -13 -3 -18 -2 -15 -16 -26 -16 -13 0 7 -5 12 -12 12 -9 0 -9 -3 0
-12 24 -24 11 -31 -15 -7 -14 13 -23 19 -19 12 3 -6 2 -14 -4 -18 -6 -3 -10 3
-10 15 0 16 4 20 16 16 19 -7 54 10 53 27 0 9 -2 9 -6 0 -2 -7 -9 -13 -15 -13
-7 0 -6 5 1 14 10 11 38 14 84 7 4 -1 7 -6 7 -12 0 -5 -4 -7 -10 -4 -5 3 -10
1 -10 -4 0 -18 19 -12 30 9 6 11 15 20 21 20 6 0 7 -5 3 -11 -4 -7 3 -6 17 2
13 7 25 12 27 11 9 -7 22 0 17 8 -8 12 2 30 17 30 7 0 6 -6 -2 -15z m-83 -3
c9 -6 7 -11 -7 -20 -16 -10 -18 -9 -17 8 1 22 6 24 24 12z m-1634 -121 c32
-37 68 -79 80 -92 21 -23 125 -143 176 -204 17 -20 19 -26 7 -22 -16 6 -23 -7
-8 -16 4 -2 3 -3 -3 -2 -6 2 -10 -25 -10 -65 0 -55 3 -67 15 -63 9 3 11 2 5
-4 -5 -4 -10 -14 -10 -22 0 -23 -23 -24 -35 -2 -6 12 -15 21 -21 21 -5 0 -2
-12 7 -27 l17 -28 -25 25 c-22 22 -23 26 -9 37 13 9 19 7 31 -13 13 -22 30
-32 30 -18 0 15 -43 64 -56 64 -8 0 -14 5 -14 10 0 12 41 -7 52 -24 5 -7 8 -6
8 3 0 8 -8 20 -17 27 -17 13 -17 15 0 28 9 7 17 19 17 27 0 11 -2 11 -10 -1
-16 -24 -11 -2 6 32 12 24 13 33 3 42 -7 6 -10 7 -6 0 3 -5 -2 -23 -13 -39
-10 -15 -16 -35 -13 -44 3 -12 0 -11 -11 3 -9 11 -16 27 -15 35 0 12 2 11 8
-3 7 -18 8 -18 14 -3 3 9 5 17 3 17 -3 0 -11 3 -20 6 -11 4 -16 0 -16 -12 0
-9 -3 -15 -6 -11 -4 3 -15 -4 -25 -16 l-18 -22 4 35 c3 25 2 31 -5 20 -11 -17
-13 -54 -3 -63 3 -4 16 1 27 12 21 19 21 19 39 -5 20 -27 16 -32 -8 -8 -9 9
-19 14 -22 10 -4 -3 -1 -12 5 -18 7 -7 12 -17 12 -22 0 -6 -5 -3 -11 7 -5 9
-15 17 -21 17 -7 0 -6 -5 2 -15 12 -15 3 -21 -24 -16 -5 1 -6 -4 -3 -12 3 -8
-3 -13 -17 -14 -11 0 -15 1 -8 4 6 3 10 9 6 14 -5 8 9 13 29 10 15 -2 6 18
-13 32 -11 8 -17 16 -15 19 3 3 -4 8 -15 11 -18 5 -19 3 -8 -11 7 -9 9 -14 5
-11 -5 4 -29 2 -55 -5 -63 -16 -92 -10 -93 17 -6 139 -2 444 6 440 5 -2 36
-35 68 -72z m1647 39 c0 -11 -4 -20 -10 -20 -5 0 -10 9 -10 20 0 11 5 20 10
20 6 0 10 -9 10 -20z m-259 -30 c13 -10 18 -19 12 -20 -7 0 -13 6 -13 13 0 8
-4 7 -10 -3 -5 -8 -10 -11 -10 -5 0 5 -5 4 -12 -3 -17 -17 -28 -15 -21 6 4 12
0 10 -15 -7 -12 -13 -19 -28 -16 -32 3 -5 1 -9 -5 -9 -29 0 -7 44 34 68 27 15
29 15 56 -8z m133 -29 c-7 -7 -34 28 -34 43 1 6 10 0 21 -13 11 -13 17 -27 13
-30z m147 24 c0 -5 -5 -11 -12 -14 -7 -2 -9 1 -4 9 5 9 4 11 -4 6 -6 -4 -9
-11 -6 -16 3 -4 -2 -11 -11 -14 -12 -5 -14 -1 -9 17 5 19 4 20 -5 5 -15 -25
-34 -24 -21 1 11 20 71 25 72 6z m-101 -11 c0 -8 -5 -14 -11 -14 -5 0 -7 4 -4
10 3 6 -1 7 -9 4 -9 -3 -16 -2 -16 3 0 5 9 9 20 10 11 1 20 -4 20 -13z m-210
-29 c-8 -9 -8 -15 -2 -15 6 0 14 9 17 20 5 16 10 18 26 9 22 -11 21 -30 -2
-38 -12 -4 -12 -2 0 12 9 11 10 17 2 17 -11 0 -13 -7 -14 -47 0 -13 -1 -23 -3
-23 -12 0 -34 14 -34 22 0 5 5 6 10 3 6 -3 10 -1 10 4 0 13 -17 14 -24 2 -8
-13 4 -42 15 -35 5 3 9 0 9 -6 0 -6 4 -9 9 -6 5 3 15 -2 22 -11 12 -15 12 -16
-6 -9 -32 12 -37 12 -42 -2 -3 -8 2 -10 14 -6 15 5 16 4 3 -6 -11 -9 -12 -13
-2 -17 6 -2 12 -10 12 -16 -1 -7 -12 2 -25 18 -14 17 -29 31 -35 31 -5 1 -15
2 -20 3 -6 1 -5 9 2 21 10 16 10 22 0 32 -8 7 -13 9 -12 3 5 -21 0 -36 -10
-30 -20 12 -10 -24 10 -38 17 -12 18 -16 6 -20 -8 -3 -13 -14 -12 -24 2 -10 1
-12 -1 -5 -3 6 -9 12 -16 12 -6 0 -3 6 7 13 16 12 16 14 2 26 -20 17 -21 40
-1 47 8 4 13 10 10 15 -3 4 4 13 15 19 11 6 18 15 15 20 -3 5 -1 11 5 15 5 3
10 -3 10 -14 0 -12 -5 -21 -12 -21 -6 0 -9 -2 -6 -5 9 -9 38 6 32 16 -6 11 16
43 24 34 3 -2 -1 -11 -8 -20z m131 -13 c-7 -2 -17 2 -22 9 -7 11 -9 11 -9 1 0
-7 -4 -10 -10 -7 -6 4 -7 -1 -3 -11 4 -12 3 -15 -5 -10 -8 5 -10 1 -6 -11 4
-14 3 -15 -4 -4 -7 9 -12 10 -16 2 -4 -6 -13 -11 -19 -11 -7 0 -5 6 5 14 10 7
22 25 27 40 11 27 11 27 43 10 21 -11 28 -19 19 -22z m185 12 c-9 -9 -13 -27
-11 -45 4 -34 14 -51 16 -28 1 8 2 20 3 28 0 8 8 16 16 18 12 4 13 3 1 -5 -7
-5 -10 -15 -7 -21 4 -6 1 -25 -8 -42 -15 -29 -14 -30 17 -49 18 -11 36 -20 41
-20 4 0 5 -10 1 -22 -4 -13 -7 -32 -6 -43 0 -11 -7 -27 -16 -37 -9 -10 -13
-18 -9 -18 4 0 -2 -9 -13 -21 -11 -12 -25 -19 -33 -16 -9 4 -8 6 4 6 10 1 16
9 15 21 -1 13 -6 19 -15 15 -7 -2 -16 5 -21 17 -5 14 -10 17 -15 10 -4 -6 3
-21 15 -33 16 -16 18 -21 6 -16 -22 8 -22 -7 1 -29 16 -17 16 -17 0 -11 -10 3
-20 2 -23 -3 -4 -6 -12 -10 -18 -10 -7 0 -4 5 6 11 9 5 17 14 17 20 0 5 -9 4
-20 -3 -16 -10 -24 -9 -51 11 -18 13 -39 25 -48 26 -25 2 -51 16 -51 26 0 5
10 3 23 -6 13 -8 27 -12 30 -8 4 3 18 -4 32 -17 20 -19 27 -21 40 -10 8 7 13
15 10 18 -3 3 2 14 11 24 14 14 14 20 4 33 -8 10 -9 15 -1 15 15 0 53 -39 47
-48 -2 -4 8 -8 22 -8 25 -2 25 -1 7 8 -12 5 -26 18 -33 28 -10 16 -8 18 9 17
13 -1 18 -6 14 -16 -3 -9 -3 -12 1 -8 4 4 13 -1 21 -11 8 -9 11 -11 7 -3 -3 7
0 18 7 23 11 8 10 9 -3 5 -19 -7 -32 18 -20 40 11 18 22 19 34 1 8 -11 9 -11
6 0 -2 8 -7 13 -12 12 -5 -1 -13 4 -17 12 -7 10 -9 10 -9 0 0 -7 -4 -10 -10
-7 -5 3 -7 0 -4 -8 3 -8 -2 -14 -11 -14 -10 0 -14 6 -10 14 3 8 5 19 5 24 0 6
5 7 12 3 7 -4 8 -3 4 4 -9 15 -36 4 -30 -13 3 -7 -4 -18 -15 -25 -12 -6 -22
-7 -22 -3 -1 4 -3 18 -4 30 -1 13 -7 29 -13 36 -9 11 -6 14 18 14 21 0 27 -4
20 -11 -13 -13 -13 -29 1 -24 6 2 9 7 7 10 -2 4 6 14 17 23 16 12 17 14 2 9
-13 -5 -16 -2 -11 9 3 10 -2 20 -15 27 -12 6 -21 16 -21 22 0 7 4 7 14 -1 11
-9 16 -9 22 0 4 7 3 9 -4 5 -6 -3 -13 -2 -16 3 -3 5 1 11 9 15 8 3 15 11 15
18 0 10 -3 9 -9 -1 -5 -8 -16 -11 -24 -8 -11 4 -14 1 -11 -7 4 -10 -6 -13 -37
-12 -23 1 -47 -4 -54 -11 -11 -10 -14 -10 -19 2 -6 16 2 44 13 46 25 5 69 5
86 -2 12 -4 31 -1 45 6 30 16 46 9 26 -11z m-176 -44 c6 -11 19 -16 36 -14 37
4 54 -5 47 -24 -4 -15 -3 -15 7 -2 9 11 13 12 17 3 2 -7 10 -13 16 -13 7 1 2
9 -10 19 -13 11 -18 23 -13 31 6 9 10 7 15 -9 3 -11 13 -21 21 -21 8 0 14 -4
14 -10 0 -12 0 -12 -67 -14 -39 -2 -50 1 -46 11 3 7 0 13 -7 13 -6 0 -8 -4 -5
-10 3 -5 3 -10 -2 -10 -4 0 -16 15 -26 33 l-19 32 -22 -28 c-18 -22 -24 -25
-36 -15 -12 11 -12 10 -1 -4 16 -21 -1 -24 -18 -4 -9 11 -8 15 5 20 9 3 20 4
25 0 5 -3 14 6 20 20 12 27 33 25 49 -4z m-524 -22 c-16 -11 -26 -10 -26 3 0
5 5 7 12 3 7 -5 9 -2 5 8 -3 9 -3 19 1 23 3 3 9 -2 13 -12 3 -10 1 -21 -5 -25z
m609 22 c3 -5 1 -10 -4 -10 -6 0 -11 5 -11 10 0 6 2 10 4 10 3 0 8 -4 11 -10z
m-111 -24 c-9 -7 -14 -18 -10 -24 6 -11 -5 -16 -26 -13 -4 0 -5 -6 -1 -15 5
-12 7 -13 14 -3 4 8 11 10 16 6 4 -5 3 -11 -2 -15 -14 -10 -15 -44 -2 -39 6 2
11 17 12 33 0 16 6 33 12 37 15 10 53 -9 53 -26 0 -8 -4 -7 -11 3 -9 12 -10
12 -5 -4 5 -14 2 -17 -10 -12 -25 10 -34 -2 -22 -29 6 -13 15 -22 20 -19 5 3
4 12 -3 20 -9 11 -8 14 5 14 10 0 14 -4 11 -10 -3 -5 -1 -10 5 -10 6 0 8 -5 4
-12 -5 -9 -2 -9 9 1 18 14 23 26 8 17 -5 -3 -11 1 -14 8 -4 10 1 14 14 13 22
-2 26 -35 5 -43 -8 -3 -12 -12 -9 -20 3 -8 0 -14 -6 -14 -6 0 -10 5 -8 11 1 6
-4 14 -12 17 -8 2 -11 0 -8 -6 4 -5 0 -16 -9 -23 -14 -12 -14 -14 2 -26 10 -7
13 -13 7 -13 -6 0 -16 7 -23 15 -10 11 -16 12 -26 4 -16 -13 -14 -40 5 -63 16
-19 28 -13 15 7 -5 7 -2 5 8 -5 9 -10 22 -18 30 -18 10 0 9 3 -2 10 -26 17 1
11 31 -7 16 -10 29 -21 29 -26 0 -5 -6 -4 -14 2 -8 7 -16 8 -18 4 -3 -4 -4 -3
-2 3 2 8 -10 11 -32 9 -36 -4 -67 -22 -60 -34 3 -4 1 -13 -4 -20 -9 -15 -30
-6 -30 12 0 7 4 6 10 -3 5 -8 10 -13 11 -10 0 3 2 14 4 25 2 11 9 21 14 23 20
7 11 22 -10 19 -12 -1 -23 4 -25 11 -1 7 0 8 3 2 2 -5 9 -10 14 -10 10 0 6 31
-6 63 -4 9 -2 24 5 32 7 8 9 15 5 15 -12 0 -66 -42 -61 -48 3 -2 12 1 21 8 8
7 15 8 15 2 0 -12 -29 -24 -41 -16 -16 9 -10 19 22 38 24 14 28 21 18 32 -6 7
-14 12 -18 10 -4 -3 -7 4 -8 15 -2 16 1 16 21 -6 29 -31 35 -31 34 -2 -2 31
-16 46 -38 40 -11 -3 -20 0 -20 6 0 6 7 8 17 4 10 -4 14 -2 9 5 -3 6 2 13 12
16 11 4 24 18 31 32 6 14 16 22 22 19 6 -5 4 -12 -7 -19z m-537 -28 c-17 -11
-27 -10 -27 3 0 5 5 7 10 4 6 -3 10 -1 10 4 0 6 -5 11 -11 11 -5 0 -7 5 -4 11
5 6 12 4 20 -8 10 -13 10 -20 2 -25z m-42 22 c3 -6 -1 -7 -9 -4 -18 7 -21 14
-7 14 6 0 13 -4 16 -10z m600 -10 c-3 -5 -10 -10 -16 -10 -5 0 -9 5 -9 10 0 6
7 10 16 10 8 0 12 -4 9 -10z m-605 -15 c0 6 5 2 11 -7 7 -12 7 -24 0 -35 -6
-10 -11 -13 -11 -8 -1 6 -5 1 -9 -10 -6 -14 -8 -6 -8 28 0 28 4 42 9 35 4 -7
8 -8 8 -3z m-30 -5 c0 -5 -9 -10 -19 -10 -23 0 -36 -17 -34 -45 1 -16 1 -17
-3 -2 -3 9 -10 15 -15 12 -5 -4 -9 -2 -9 2 0 8 32 32 60 45 21 9 20 9 20 -2z
m130 -10 c-13 -9 -13 -11 0 -20 9 -6 10 -10 3 -10 -6 0 -15 5 -18 10 -8 13 3
30 18 30 7 0 6 -4 -3 -10z m596 -5 c10 -8 15 -15 9 -15 -5 0 -3 -5 5 -10 10
-7 11 -10 2 -10 -9 0 -8 -6 3 -24 18 -27 4 -46 -19 -27 -9 8 -13 7 -13 -4 0
-8 2 -13 5 -10 3 2 13 0 24 -6 27 -14 12 -31 -23 -25 -20 3 -29 1 -26 -7 2 -7
13 -11 23 -9 16 2 17 1 4 -7 -12 -9 -13 -11 -1 -11 8 0 12 -3 8 -6 -3 -4 -18
3 -33 15 -15 11 -23 21 -18 22 5 0 0 5 -11 10 -16 7 -13 8 13 5 29 -4 32 -2
28 20 -6 29 9 40 32 23 14 -11 13 -10 -1 8 -11 12 -16 27 -12 32 5 10 -7 15
-27 12 -5 0 -8 8 -8 19 0 24 9 25 36 5z m-237 -61 c-21 -25 -20 -50 1 -69 11
-10 20 -25 20 -34 0 -9 -10 0 -21 19 -19 31 -22 33 -34 17 -13 -18 -31 -24
-20 -7 3 6 -1 10 -9 10 -21 0 -30 18 -16 35 11 13 8 18 -10 17 -3 0 -6 8 -6
19 0 25 12 24 19 -1 4 -15 10 -18 24 -13 12 4 10 0 -7 -14 -14 -12 -23 -23
-20 -26 12 -12 43 -11 47 1 3 8 -1 10 -14 6 -13 -5 -12 -2 5 10 25 19 28 32
10 39 -7 2 -3 2 10 0 25 -4 28 3 8 22 -10 10 -16 11 -25 2 -15 -15 -14 0 1 17
10 11 16 9 31 -11 16 -20 17 -26 6 -39z m-639 46 c0 -5 -5 -10 -11 -10 -5 0
-7 5 -4 10 3 6 8 10 11 10 2 0 4 -4 4 -10z m150 -12 c0 -6 -6 -5 -15 2 -12 10
-15 10 -15 0 0 -8 -3 -11 -6 -7 -3 3 -3 10 0 16 8 12 36 3 36 -11z m77 -6 c9
-6 6 -16 -12 -36 -14 -16 -27 -27 -30 -24 -3 2 4 14 15 26 21 23 27 37 10 27
-5 -3 -10 -1 -10 4 0 13 10 14 27 3z m493 -2 c0 -5 -2 -10 -4 -10 -3 0 -8 5
-11 10 -3 6 -1 10 4 10 6 0 11 -4 11 -10z m-730 -10 c0 -5 -2 -10 -4 -10 -3 0
-8 5 -11 10 -3 6 -1 10 4 10 6 0 11 -4 11 -10z m666 -28 c-17 -16 -18 -16 -5
5 7 12 15 20 18 17 3 -2 -3 -12 -13 -22z m-803 1 c-7 -2 -9 -12 -6 -21 3 -11
2 -13 -4 -6 -4 6 -16 10 -25 8 -19 -2 -24 11 -8 21 6 3 10 0 10 -7 0 -8 5 -7
17 5 9 9 19 14 22 10 3 -3 1 -8 -6 -10z m65 -6 c13 4 13 2 -3 -10 -20 -15 -20
-16 4 -41 24 -25 24 -26 6 -46 -10 -11 -23 -20 -29 -20 -6 0 0 9 13 19 l24 19
-26 26 c-14 14 -31 26 -36 26 -7 0 -6 9 1 25 9 21 13 23 20 11 5 -9 16 -13 26
-9z m357 -7 c-3 -5 -12 -10 -18 -10 -7 0 -6 4 3 10 19 12 23 12 15 0z m400 -9
c-16 -10 -32 -17 -34 -15 -7 7 33 33 49 34 8 0 2 -8 -15 -19z m270 9 c-3 -5
-10 -10 -16 -10 -5 0 -9 5 -9 10 0 6 7 10 16 10 8 0 12 -4 9 -10z m-680 -30
c3 -6 -1 -7 -10 -4 -18 7 -48 -14 -39 -28 3 -5 7 -20 8 -33 3 -21 1 -22 -20
-13 -13 6 -20 16 -17 21 5 8 8 7 11 -1 2 -7 8 -10 12 -7 5 3 7 12 4 20 -4 8
-10 12 -15 9 -18 -11 -8 8 14 27 25 21 43 24 52 9z m-389 -15 c4 -8 10 -13 14
-10 4 3 11 -2 14 -10 4 -13 2 -14 -14 -5 -11 6 -20 15 -20 20 0 6 -5 10 -10
10 -7 0 -7 -7 0 -22 11 -22 10 -22 -4 -4 -9 11 -16 23 -16 28 0 14 30 9 36 -7z
m124 -5 c0 -5 -5 -10 -11 -10 -5 0 -7 5 -4 10 3 6 8 10 11 10 2 0 4 -4 4 -10z
m256 -2 c4 -7 3 -8 -4 -4 -7 4 -12 2 -12 -5 0 -7 -3 -10 -6 -6 -6 5 3 27 11
27 2 0 7 -5 11 -12z m-110 -16 c1 -7 0 -8 -3 -2 -8 16 -26 12 -19 -5 3 -9 -6
-25 -21 -40 -15 -13 -24 -27 -20 -31 3 -3 13 1 22 10 9 9 21 14 26 10 6 -3 16
0 24 6 17 14 45 6 45 -12 0 -9 -3 -8 -10 2 -8 13 -13 13 -30 2 -11 -7 -25 -10
-29 -7 -5 2 -15 -3 -22 -12 -12 -15 -12 -16 6 -9 12 4 6 -5 -15 -23 -19 -16
-37 -27 -39 -25 -2 2 7 12 20 23 29 25 18 27 -19 5 l-27 -16 23 19 c21 17 22
21 8 33 -9 7 -20 10 -23 6 -4 -4 -1 -11 6 -16 10 -5 6 -8 -12 -7 -24 2 -24 3
-10 20 11 11 23 15 37 11 18 -6 19 -5 7 10 -9 10 -10 16 -2 16 6 0 11 -5 11
-12 0 -6 8 -3 20 7 11 10 17 22 14 26 -7 13 6 31 19 26 6 -2 12 -9 13 -15z
m494 -24 c0 -5 -5 -8 -11 -8 -5 0 -8 4 -4 9 3 5 1 12 -5 16 -5 3 -10 -2 -10
-11 0 -10 -3 -15 -6 -11 -3 3 -3 15 1 27 6 20 7 21 21 3 7 -10 14 -21 14 -25z
m-460 25 c0 -5 -5 -15 -10 -23 -7 -12 -9 -10 -7 8 1 19 17 33 17 15z m540 -3
c0 -5 -2 -10 -4 -10 -3 0 -8 5 -11 10 -3 6 -1 10 4 10 6 0 11 -4 11 -10z
m-760 -15 c0 -8 -4 -15 -10 -15 -5 0 -7 7 -4 15 4 8 8 15 10 15 2 0 4 -7 4
-15z m30 1 c0 -7 -7 -19 -15 -26 -8 -7 -15 -17 -15 -23 0 -5 8 -3 18 6 20 18
42 22 42 8 0 -5 -8 -15 -17 -22 -16 -13 -17 -12 -4 4 8 10 9 17 3 17 -6 0 -15
-7 -20 -15 -5 -10 -15 -13 -25 -9 -9 3 -14 11 -10 17 4 6 -2 8 -15 5 -13 -4
-20 -2 -16 4 3 5 15 8 25 5 21 -6 44 17 34 33 -3 5 -1 10 4 10 6 0 11 -6 11
-14z m30 -1 c0 -8 -4 -15 -8 -15 -5 0 -9 7 -9 15 0 8 4 15 9 15 4 0 8 -7 8
-15z m40 5 c8 -5 11 -10 5 -10 -5 0 -17 5 -25 10 -8 5 -10 10 -5 10 6 0 17 -5
25 -10z m515 -4 c-13 -9 -15 -15 -7 -20 7 -4 12 -2 12 5 0 7 3 10 6 7 3 -4 -2
-19 -11 -35 -9 -15 -14 -20 -11 -10 4 11 3 24 -1 30 -14 22 -11 33 9 34 19 2
19 1 3 -11z m125 -7 c0 -4 -7 -6 -15 -3 -8 4 -15 10 -15 15 0 4 7 6 15 3 8 -4
15 -10 15 -15z m-1105 -17 c-3 -3 -11 0 -18 7 -9 10 -8 11 6 5 10 -3 15 -9 12
-12z m450 8 c3 -5 1 -10 -4 -10 -6 0 -11 5 -11 10 0 6 2 10 4 10 3 0 8 -4 11
-10z m105 0 c0 -5 -5 -10 -11 -10 -5 0 -7 5 -4 10 3 6 8 10 11 10 2 0 4 -4 4
-10z m530 -4 c0 -3 -4 -8 -10 -11 -5 -3 -10 -1 -10 4 0 6 5 11 10 11 6 0 10
-2 10 -4z m-1095 -26 c10 -12 25 -18 33 -15 8 3 1 -10 -14 -29 -16 -19 -36
-35 -44 -35 -12 0 -11 2 3 10 9 5 17 15 17 21 0 7 -5 6 -15 -2 -10 -9 -15 -9
-15 -1 0 11 13 15 38 12 19 -3 14 9 -14 35 -14 13 -21 24 -16 24 5 0 17 -9 27
-20z m1045 8 c0 -9 4 -8 10 2 5 8 10 10 10 5 0 -14 -21 -35 -34 -35 -6 0 -5 4
3 9 9 6 10 11 2 15 -6 4 -14 0 -17 -8 -3 -9 -10 -16 -15 -16 -5 0 -4 9 3 20
14 22 38 27 38 8z m68 -13 c0 -14 -4 -25 -8 -25 -6 0 -7 37 -1 48 4 9 9 -2 9
-23z m-1133 -5 c3 -5 1 -10 -4 -10 -6 0 -11 5 -11 10 0 6 2 10 4 10 3 0 8 -4
11 -10z m615 0 c0 -5 -5 -10 -11 -10 -5 0 -7 5 -4 10 3 6 8 10 11 10 2 0 4 -4
4 -10z m486 -5 c-4 -10 2 -19 17 -25 12 -5 16 -9 9 -9 -7 -1 -21 4 -31 11 -14
9 -16 14 -7 24 15 18 19 17 12 -1z m64 11 c0 -3 -4 -8 -10 -11 -5 -3 -10 -1
-10 4 0 6 5 11 10 11 6 0 10 -2 10 -4z m64 -21 c-4 -8 -11 -15 -17 -15 -6 0
-8 -3 -4 -6 3 -4 0 -13 -8 -20 -21 -22 -27 -16 -10 9 8 13 12 27 8 32 -5 4 -2
5 5 1 6 -4 12 -2 12 3 0 6 4 11 10 11 5 0 7 -7 4 -15z m11 -27 c-10 -13 -14
-16 -11 -8 3 8 9 24 13 35 4 11 8 14 11 7 2 -6 -4 -22 -13 -34z m-1445 24 c0
-4 -9 -13 -20 -20 -19 -12 -20 -11 -8 8 13 20 28 27 28 12z m30 -2 c0 -5 -4
-10 -10 -10 -5 0 -10 5 -10 10 0 6 5 10 10 10 6 0 10 -4 10 -10z m247 -7 c-4
-3 0 -18 9 -32 l16 -26 -22 21 c-19 19 -21 44 -3 44 4 0 3 -3 0 -7z m-279 -27
c-7 -8 -15 -12 -17 -11 -5 6 10 25 20 25 5 0 4 -6 -3 -14z m1302 4 c0 -5 -2
-10 -4 -10 -3 0 -8 5 -11 10 -3 6 -1 10 4 10 6 0 11 -4 11 -10z m-552 -20 c-7
-10 -14 -18 -15 -16 -6 6 9 36 18 36 5 0 4 -9 -3 -20z m26 -59 c9 -12 8 -12
-11 -1 -13 8 -19 20 -15 29 5 13 6 13 10 0 3 -7 10 -20 16 -28z m-459 19 c3
-5 1 -10 -4 -10 -6 0 -11 5 -11 10 0 6 2 10 4 10 3 0 8 -4 11 -10z m480 0 c3
-5 1 -10 -4 -10 -6 0 -11 5 -11 10 0 6 2 10 4 10 3 0 8 -4 11 -10z m-515 -20
c0 -5 -2 -10 -4 -10 -3 0 -8 5 -11 10 -3 6 -1 10 4 10 6 0 11 -4 11 -10z"/>
<path d="M2226 1032 c-2 -4 -1 -14 3 -21 6 -10 10 -9 14 3 6 16 -8 32 -17 18z"/>
<path d="M700 645 c0 -7 30 -13 34 -7 3 4 -4 9 -15 9 -10 1 -19 0 -19 -2z"/>
<path d="M740 540 c0 -5 5 -10 10 -10 6 0 10 5 10 10 0 6 -4 10 -10 10 -5 0
-10 -4 -10 -10z"/>
<path d="M1841 853 c0 -6 -3 -18 -6 -25 -4 -9 2 -14 15 -15 11 -1 20 2 20 8 0
5 -4 9 -9 9 -5 0 -12 8 -14 18 -3 9 -5 12 -6 5z"/>
<path d="M2042 894 c-7 -8 -8 -14 -3 -14 10 0 25 19 20 25 -2 1 -10 -3 -17
-11z"/>
<path d="M2100 900 c0 -5 5 -10 11 -10 5 0 7 5 4 10 -3 6 -8 10 -11 10 -2 0
-4 -4 -4 -10z"/>
<path d="M2150 739 c0 -5 5 -7 10 -4 6 3 10 8 10 11 0 2 -4 4 -10 4 -5 0 -10
-5 -10 -11z"/>
<path d="M2230 699 c0 -5 5 -7 10 -4 6 3 10 8 10 11 0 2 -4 4 -10 4 -5 0 -10
-5 -10 -11z"/>
<path d="M2139 640 c0 -3 -2 -14 -4 -24 -2 -10 -10 -23 -17 -27 -10 -7 -9 -9
4 -9 22 0 40 31 27 51 -5 7 -9 12 -10 9z"/>
<path d="M1980 715 c-14 -16 -10 -18 14 -9 9 3 16 10 16 15 0 14 -16 11 -30
-6z"/>
<path d="M1987 694 c-15 -8 -27 -22 -27 -30 0 -14 2 -14 16 0 8 9 19 14 22 12
4 -2 13 2 19 10 19 19 2 24 -30 8z"/>
<path d="M1400 780 c0 -5 5 -10 10 -10 6 0 10 5 10 10 0 6 -4 10 -10 10 -5 0
-10 -4 -10 -10z"/>
<path d="M2100 670 c0 -6 7 -10 15 -10 8 0 15 2 15 4 0 2 -7 6 -15 10 -8 3
-15 1 -15 -4z"/>
<path d="M1110 694 c0 -8 5 -12 10 -9 6 4 8 11 5 16 -9 14 -15 11 -15 -7z"/>
<path d="M1433 1075 c0 -8 4 -12 9 -9 5 3 6 10 3 15 -9 13 -12 11 -12 -6z"/>
<path d="M1460 1060 c0 -5 5 -10 11 -10 5 0 7 5 4 10 -3 6 -8 10 -11 10 -2 0
-4 -4 -4 -10z"/>
<path d="M1374 1038 c-4 -7 -4 -10 1 -6 4 4 14 0 22 -10 13 -15 13 -15 3 6
-12 25 -16 27 -26 10z"/>
<path d="M1487 1043 c-10 -10 -8 -41 2 -48 5 -3 13 0 17 6 5 8 3 9 -6 4 -10
-6 -12 -1 -8 19 6 28 5 30 -5 19z"/>
<path d="M1420 1008 c-10 -21 -10 -21 3 -6 8 10 17 15 20 11 4 -3 7 -1 7 5 0
20 -19 13 -30 -10z"/>
<path d="M1352 1011 c-10 -6 -9 -10 7 -14 12 -3 24 0 28 5 3 6 1 8 -5 4 -5 -3
-12 -2 -14 4 -2 5 -9 6 -16 1z"/>
<path d="M1308 1003 c7 -3 16 -2 19 1 4 3 -2 6 -13 5 -11 0 -14 -3 -6 -6z"/>
<path d="M1455 1001 c-3 -6 5 -15 17 -21 21 -10 21 -10 6 3 -10 8 -15 17 -11
20 3 4 4 7 0 7 -3 0 -8 -4 -12 -9z"/>
<path d="M1265 977 c10 -15 20 -25 23 -22 3 3 -5 16 -17 28 l-23 22 17 -28z"/>
<path d="M1295 980 c3 -5 8 -10 11 -10 2 0 4 5 4 10 0 6 -5 10 -11 10 -5 0 -7
-4 -4 -10z"/>
<path d="M1325 980 c-3 -6 1 -7 9 -4 18 7 21 14 7 14 -6 0 -13 -4 -16 -10z"/>
<path d="M1394 982 c3 -5 1 -12 -6 -14 -6 -2 -12 -15 -14 -29 -1 -13 0 -18 2
-12 3 7 6 16 6 20 1 5 8 13 16 19 12 9 12 13 2 19 -8 5 -11 4 -6 -3z"/>
<path d="M1420 968 c-10 -21 -10 -21 3 -6 8 10 18 14 22 10 5 -4 5 -1 1 6 -10
17 -14 15 -26 -10z"/>
<path d="M1355 969 c-4 -6 -5 -12 -2 -15 2 -3 7 2 10 11 7 17 1 20 -8 4z"/>
<path d="M1296 945 c-3 -8 -1 -15 4 -15 6 0 10 7 10 15 0 8 -2 15 -4 15 -2 0
-6 -7 -10 -15z"/>
<path d="M1425 940 c-16 -18 -17 -20 -1 -26 11 -4 15 -13 11 -23 -5 -13 -4
-14 7 -3 11 11 10 16 -4 26 -16 12 -16 14 0 29 9 9 14 17 11 17 -3 0 -14 -9
-24 -20z"/>
<path d="M1196 935 c-11 -8 -16 -15 -10 -15 5 0 18 7 28 15 11 8 16 15 10 15
-5 0 -18 -7 -28 -15z"/>
<path d="M1230 929 c-17 -13 -18 -17 -5 -10 33 17 51 31 40 31 -5 0 -21 -10
-35 -21z"/>
<path d="M1465 940 c3 -5 8 -10 11 -10 2 0 4 5 4 10 0 6 -5 10 -11 10 -5 0 -7
-4 -4 -10z"/>
<path d="M1255 920 c-3 -6 1 -7 9 -4 18 7 21 14 7 14 -6 0 -13 -4 -16 -10z"/>
<path d="M1310 920 c-13 -8 -12 -10 3 -10 9 0 17 5 17 10 0 12 -1 12 -20 0z"/>
<path d="M1390 921 c0 -6 4 -13 10 -16 6 -3 7 1 4 9 -7 18 -14 21 -14 7z"/>
<path d="M1450 926 c0 -3 9 -10 20 -16 11 -6 20 -8 20 -6 0 3 -9 10 -20 16
-11 6 -20 8 -20 6z"/>
<path d="M1496 917 c3 -10 9 -15 12 -12 3 3 0 11 -7 18 -10 9 -11 8 -5 -6z"/>
<path d="M1342 912 c2 -8 7 -13 12 -12 5 1 13 -4 18 -12 8 -11 9 -11 6 0 -2 8
-7 13 -12 12 -5 -1 -13 4 -18 12 -8 11 -9 11 -6 0z"/>
<path d="M1136 895 c4 -8 8 -15 10 -15 2 0 4 7 4 15 0 8 -4 15 -10 15 -5 0 -7
-7 -4 -15z"/>
<path d="M1165 900 c-3 -6 1 -7 9 -4 18 7 21 14 7 14 -6 0 -13 -4 -16 -10z"/>
<path d="M1224 896 c-3 -8 -12 -12 -20 -9 -8 3 -14 1 -14 -5 0 -14 33 -8 38 6
2 7 9 9 14 6 7 -4 8 -2 4 4 -10 16 -15 15 -22 -2z"/>
<path d="M1115 880 c3 -5 8 -10 11 -10 2 0 4 5 4 10 0 6 -5 10 -11 10 -5 0 -7
-4 -4 -10z"/>
<path d="M1255 880 c-7 -11 22 -26 32 -16 4 3 -1 6 -11 6 -9 0 -14 5 -11 10 3
6 4 10 1 10 -3 0 -8 -5 -11 -10z"/>
<path d="M1280 886 c0 -2 7 -7 16 -10 8 -3 12 -2 9 4 -6 10 -25 14 -25 6z"/>
<path d="M1325 880 c-5 -9 -4 -11 3 -6 7 4 12 1 12 -8 0 -19 16 -21 26 -3 4 6
4 9 -1 5 -4 -4 -13 0 -20 9 -9 13 -14 13 -20 3z"/>
<path d="M1390 880 c0 -5 7 -7 15 -4 8 4 15 8 15 10 0 2 -7 4 -15 4 -8 0 -15
-4 -15 -10z"/>
<path d="M1170 871 c0 -6 4 -13 10 -16 6 -3 7 1 4 9 -7 18 -14 21 -14 7z"/>
<path d="M1070 860 c0 -5 9 -14 20 -20 11 -6 20 -9 20 -8 0 2 -9 11 -20 21
-11 9 -20 13 -20 7z"/>
<path d="M1090 866 c0 -2 7 -7 16 -10 8 -3 12 -2 9 4 -6 10 -25 14 -25 6z"/>
<path d="M1135 860 c-3 -5 -1 -10 4 -10 6 0 11 5 11 10 0 6 -2 10 -4 10 -3 0
-8 -4 -11 -10z"/>
<path d="M1240 852 c9 -19 30 -23 30 -5 0 4 -3 3 -7 0 -3 -4 -12 1 -20 11 -13
15 -13 15 -3 -6z"/>
<path d="M1030 850 c0 -6 -6 -8 -12 -4 -7 4 -10 3 -5 -1 6 -7 57 -15 57 -8 0
1 -9 7 -20 13 -14 8 -20 8 -20 0z"/>
<path d="M1150 840 c-13 -8 -12 -10 3 -10 9 0 17 5 17 10 0 12 -1 12 -20 0z"/>
<path d="M1296 837 c3 -10 9 -15 12 -12 3 3 0 11 -7 18 -10 9 -11 8 -5 -6z"/>
<path d="M1180 831 c0 -10 19 -25 25 -20 1 2 -3 10 -11 17 -8 7 -14 8 -14 3z"/>
<path d="M980 818 c0 -4 4 -8 9 -8 6 0 12 4 15 8 3 5 -1 9 -9 9 -8 0 -15 -4
-15 -9z"/>
<path d="M1075 819 c-5 -8 -5 -11 0 -7 4 4 13 1 19 -6 8 -10 17 -11 31 -5 l20
9 -20 -3 c-11 -1 -25 4 -31 12 -9 12 -12 12 -19 0z"/>
<path d="M1260 820 c-8 -5 -10 -10 -5 -10 6 0 17 5 25 10 8 5 11 10 5 10 -5 0
-17 -5 -25 -10z"/>
<path d="M1156 807 c3 -10 9 -15 12 -12 3 3 0 11 -7 18 -10 9 -11 8 -5 -6z"/>
<path d="M950 801 c0 -6 4 -12 8 -15 5 -3 9 1 9 9 0 8 -4 15 -9 15 -4 0 -8 -4
-8 -9z"/>
<path d="M1000 788 c-10 -21 -10 -21 3 -6 8 10 18 14 22 10 5 -4 5 -1 1 6 -10
17 -14 15 -26 -10z"/>
<path d="M1054 802 c4 -7 3 -12 -1 -12 -5 0 -17 -6 -28 -13 -14 -11 -15 -16
-5 -22 9 -5 11 -4 6 3 -4 7 -3 12 1 12 5 0 17 6 28 13 14 11 15 16 5 22 -9 5
-11 4 -6 -3z"/>
<path d="M1074 775 c-4 -8 -11 -12 -17 -8 -5 3 -7 1 -4 -5 8 -12 32 -10 44 3
5 4 2 5 -6 0 -11 -6 -13 -4 -8 8 3 10 4 17 1 17 -2 0 -7 -7 -10 -15z"/>
<path d="M1130 779 c0 -5 5 -7 10 -4 6 3 10 8 10 11 0 2 -4 4 -10 4 -5 0 -10
-5 -10 -11z"/>
<path d="M2070 520 c0 -5 5 -10 10 -10 6 0 10 5 10 10 0 6 -4 10 -10 10 -5 0
-10 -4 -10 -10z"/>
</g>
</svg>
